<svg width="40" height="40" viewBox="0 0 40 40" fill="none" xmlns="http://www.w3.org/2000/svg">
<path d="M20.0002 0C8.95583 0 0 9.18079 0 20.5063C0 29.5666 5.73066 37.2532 13.6773 39.9648C14.6769 40.1546 15.0438 39.5199 15.0438 38.9783C15.0438 38.4893 15.0253 36.8739 15.0167 35.1604C9.45262 36.4009 8.27853 32.7409 8.27853 32.7409C7.36874 30.3707 6.05788 29.7404 6.05788 29.7404C4.24326 28.4677 6.19466 28.4939 6.19466 28.4939C8.20302 28.6385 9.26053 30.607 9.26053 30.607C11.0443 33.742 13.9393 32.8357 15.0806 32.3117C15.2601 30.9864 15.7784 30.0817 16.3504 29.5696C11.9081 29.0511 7.23825 27.2928 7.23825 19.4353C7.23825 17.1965 8.01954 15.3672 9.29894 13.9311C9.09129 13.4146 8.40671 11.329 9.49269 8.50435C9.49269 8.50435 11.1722 7.95322 14.9942 10.6063C16.5895 10.152 18.3005 9.92412 20.0002 9.91631C21.6999 9.92412 23.4121 10.152 25.0105 10.6063C28.8278 7.95322 30.505 8.50435 30.505 8.50435C31.5936 11.329 30.9087 13.4146 30.7011 13.9311C31.9834 15.3672 32.7594 17.1965 32.7594 19.4353C32.7594 27.3115 28.0806 29.0457 23.6271 29.5533C24.3444 30.1897 24.9836 31.4376 24.9836 33.3508C24.9836 36.0946 24.9605 38.3029 24.9605 38.9783C24.9605 39.524 25.3205 40.1634 26.3343 39.962C34.2766 37.2475 40 29.5635 40 20.5063C40 9.18079 31.0455 0 20.0002 0" fill="#161514"/>
<path d="M7.63402 29.3018C7.59005 29.4027 7.43402 29.4329 7.29187 29.3637C7.14707 29.2974 7.06575 29.1599 7.11269 29.0587C7.15567 28.9548 7.31203 28.9259 7.45649 28.9955C7.60162 29.0617 7.68426 29.2006 7.63402 29.3018" fill="#161514"/>
<path d="M8.44263 30.2192C8.34742 30.309 8.1613 30.2673 8.03502 30.1254C7.90444 29.9839 7.87998 29.7946 7.97651 29.7035C8.07469 29.6137 8.25519 29.6557 8.3861 29.7973C8.51668 29.9405 8.54213 30.1285 8.44263 30.2192" fill="#161514"/>
<path d="M9.22979 31.3886C9.10747 31.475 8.90747 31.394 8.78384 31.2134C8.66152 31.0329 8.66152 30.8164 8.78648 30.7296C8.91045 30.6429 9.10747 30.7209 9.23276 30.9001C9.35475 31.0837 9.35475 31.3002 9.22979 31.3886" fill="#161514"/>
<path d="M10.3081 32.5183C10.1987 32.641 9.96561 32.608 9.79504 32.4406C9.62049 32.2769 9.5719 32.0445 9.68165 31.9218C9.79239 31.7987 10.0268 31.8334 10.1987 31.9995C10.3719 32.1629 10.4248 32.3969 10.3081 32.5183" fill="#161514"/>
<path d="M11.7957 33.1742C11.7474 33.3332 11.523 33.4055 11.2969 33.3379C11.0711 33.2683 10.9233 33.0821 10.9689 32.9213C11.0159 32.7613 11.2413 32.686 11.4691 32.7583C11.6945 32.8275 11.8426 33.0125 11.7957 33.1742" fill="#161514"/>
<path d="M13.4294 33.2958C13.435 33.4633 13.2433 33.6021 13.0059 33.6052C12.7673 33.6106 12.5742 33.4751 12.5716 33.3103C12.5716 33.1412 12.759 33.0037 12.9977 32.9996C13.235 32.9949 13.4294 33.1294 13.4294 33.2958" fill="#161514"/>
<path d="M14.9497 33.0327C14.9782 33.1961 14.8132 33.3639 14.5775 33.4086C14.3458 33.4516 14.1312 33.3508 14.1018 33.1887C14.073 33.0213 14.241 32.8535 14.4724 32.8101C14.7084 32.7684 14.9196 32.8666 14.9497 33.0327" fill="#161514"/>
</svg>
