<svg width="125" height="125" viewBox="0 0 125 125" fill="none" xmlns="http://www.w3.org/2000/svg">
<g clip-path="url(#clip0_218_2061)">
<path d="M69.2762 29.1719C66.0054 21.2135 66.4637 12.2604 71.1877 5.05729L74.7189 0C68.1877 12.2396 74.4064 27.2708 84.4064 35.151C87.0824 37.2454 90.0654 38.9143 93.2502 40.099C94.1044 40.4115 95.0731 40.7448 95.9585 40.9687C107.136 43.7812 116.245 41.8385 121.667 33.7344C121.5 33.9844 121.287 34.3802 121.016 34.8802C118.599 39.3594 111.526 52.4687 91.0158 48.3542C90.6252 48.276 90.2502 48.1458 89.8752 48.026L89.5419 47.9115L89.3023 47.8333C89.1918 47.7951 89.0806 47.7586 88.969 47.724C88.6651 47.6194 88.363 47.51 88.0627 47.3958C79.8075 44.25 72.7294 37.625 69.2762 29.1719V29.1719Z" fill="black"/>
<path d="M42.2919 15.4478C34.2867 27.401 34.7242 43.4062 40.969 56.052C42.1236 58.4051 43.4501 60.6699 44.9377 62.828C46.0262 64.4582 47.2242 66.2655 48.6252 67.526C49.2033 68.1874 49.8075 68.828 50.4221 69.4582L50.7762 69.8228L50.896 69.9426C51.5178 70.5712 52.1552 71.1843 52.8075 71.7812L52.8127 71.7864L52.8231 71.7968C53.6104 72.5091 54.418 73.1986 55.245 73.8645L55.4533 74.0312C56.1825 74.6145 56.9273 75.1874 57.6929 75.7343L57.7242 75.7551L57.7606 75.7812C58.0054 75.9582 58.2554 76.1301 58.5054 76.2968L58.7815 76.4843C58.9449 76.5925 59.1064 76.7036 59.2658 76.8176C59.8127 77.1822 60.3648 77.5312 60.9273 77.8749L61.0835 77.9635L61.1617 78.0155C61.7648 78.3752 62.3743 78.7242 62.9898 79.0624L63.1512 79.1457L63.3596 79.2603C63.6304 79.4062 63.9012 79.5572 64.1825 79.6978L64.3387 79.776C65.1444 80.1861 65.9606 80.5752 66.7867 80.9426L66.9533 81.0103C67.7286 81.3517 68.5118 81.6747 69.3023 81.9791L69.4585 82.0364C69.995 82.2447 70.5315 82.4322 71.0731 82.6197L71.344 82.7135L71.8023 82.8645C72.0054 82.927 72.2085 82.9999 72.4065 83.0676C72.9742 83.2655 73.5419 83.4582 74.1356 83.5624C115.459 90.6666 125 57.6457 125 57.6457C116.401 70.4999 99.745 76.6353 81.9742 71.8437C81.1873 71.6286 80.4058 71.3941 79.6304 71.1405C79.4221 71.078 79.2137 71.0051 79.0054 70.9322L78.9273 70.9062C78.3785 70.722 77.8333 70.5276 77.2919 70.3228L77.2763 70.3124C76.3775 69.9723 75.4883 69.6076 74.6096 69.2187L74.3179 69.0885C73.2939 68.6255 72.2863 68.1269 71.2971 67.5937L71.0783 67.4791L70.4533 67.1457C69.8827 66.8269 69.3184 66.497 68.7606 66.1562C67.6589 65.4834 66.5818 64.7711 65.5315 64.0207C64.7729 63.4731 64.0279 62.907 63.2971 62.3228L63.1148 62.1718C63.0083 62.0856 62.9024 61.9988 62.7971 61.9114C55.0158 55.5364 48.8492 46.8228 45.9221 36.9478C42.8492 26.6978 43.5106 15.1978 48.8335 5.8645L42.2919 15.4478Z" fill="black"/>
<path d="M7.93754 29.3589C-3.12497 45.8693 -1.74997 67.3537 6.70316 84.8953C6.85941 85.2339 7.03129 85.5672 7.19795 85.8953L7.32295 86.1454L7.4792 86.4526C7.6102 86.7257 7.74915 86.9949 7.89587 87.2599L7.96358 87.3901L8.32816 88.0672L8.40629 88.2079C8.6667 88.687 8.93754 89.1662 9.21358 89.6453L9.30212 89.8016C9.7195 90.5296 10.1554 91.2469 10.6094 91.9526L10.7032 92.1089L11.0105 92.5933C11.448 93.2703 11.8959 93.9526 12.3646 94.6245V94.6297C12.3757 94.6461 12.3879 94.6618 12.4011 94.6766L12.5261 94.8485L12.6302 94.9943C13.0365 95.5672 13.448 96.1401 13.8698 96.7026L14.3386 97.3172C15.3595 98.6402 16.4154 99.9358 17.5052 101.203L17.5365 101.239L17.5625 101.265L17.599 101.307C18.704 102.552 19.8469 103.762 21.0261 104.937L21.1823 105.093L21.5521 105.458C22.1424 106.035 22.7432 106.601 23.3542 107.156L23.5261 107.312L23.6615 107.427C24.3133 108.009 24.9731 108.582 25.6407 109.145L25.9323 109.39C26.375 109.755 26.823 110.119 27.2761 110.473L27.9896 111.041C28.4896 111.421 28.9896 111.796 29.4948 112.161L29.5782 112.223L30.0469 112.567L30.1927 112.671C30.6511 113.005 31.1146 113.317 31.5834 113.63L31.6563 113.682C31.8665 113.823 32.0748 113.967 32.2813 114.114C33.1508 114.685 34.0311 115.239 34.9219 115.776L35.2032 115.942C35.9918 116.408 36.7888 116.86 37.5938 117.296L37.8698 117.447L38.1771 117.614C38.4844 117.781 38.7865 117.947 39.099 118.109L39.2292 118.171L39.3855 118.25L39.5625 118.338C39.6667 118.39 39.7761 118.442 39.8855 118.505C40.5313 118.822 41.1771 119.135 41.8334 119.442L42.0782 119.552L42.2448 119.63C43.8724 120.371 45.5281 121.049 47.2084 121.661L47.2605 121.677L47.4792 121.76C48.6666 122.187 49.8649 122.583 51.073 122.947C51.6771 123.151 52.2865 123.348 52.9115 123.468C106.438 133.604 121.984 90.0828 121.984 90.0828C108.927 107.739 85.75 112.401 63.7865 107.213C62.9601 107.013 62.1433 106.774 61.3386 106.5L60.724 106.307C59.9323 106.057 59.1459 105.786 58.3646 105.51L58.0417 105.39C57.3386 105.13 56.6511 104.869 55.9584 104.588L55.375 104.348C54.6198 104.036 53.8698 103.718 53.1303 103.38L52.8907 103.276C52.1849 102.948 51.4835 102.611 50.7865 102.265L50.573 102.151C50.4615 102.097 50.3504 102.044 50.2396 101.989L49.125 101.401L48.7709 101.213C48.6549 101.15 48.5386 101.087 48.4219 101.026L47.7969 100.682C47.2032 100.354 46.6198 100.005 46.0365 99.6558L45.8125 99.5256L45.448 99.3172C44.5413 98.7578 43.6453 98.1814 42.7605 97.5881L42.5365 97.4318C40.3137 95.9497 38.183 94.3339 36.1563 92.5933C35.5371 92.0697 34.9259 91.5366 34.323 90.9943L34.2396 90.9162C33.4479 90.1879 32.67 89.4447 31.9063 88.687C31.4652 88.2513 31.0311 87.8085 30.6042 87.3589L30.4271 87.1818C29.7526 86.4768 29.0927 85.7579 28.448 85.0256L28.4167 84.9943L28.4063 84.9787C27.8542 84.3537 27.3125 83.7078 26.7813 83.062L26.3542 82.536C25.809 81.8598 25.2759 81.1739 24.7552 80.4787C24.2969 79.8537 23.8438 79.2391 23.4011 78.6089C11.2136 61.3485 6.83337 37.536 16.5782 17.9839L7.93754 29.3589Z" fill="black"/>
</g>
<defs>
<clipPath id="clip0_218_2061">
<rect width="125" height="125" fill="white"/>
</clipPath>
</defs>
</svg>
