<svg width="40" height="40" viewBox="0 0 40 40" fill="none" xmlns="http://www.w3.org/2000/svg">
<path d="M0 20C0 8.9543 8.9543 0 20 0C31.0457 0 40 8.9543 40 20C40 31.0457 31.0457 40 20 40C8.9543 40 0 31.0457 0 20Z" fill="#0077B5"/>
<path fill-rule="evenodd" clip-rule="evenodd" d="M14.4323 12.3522C14.4323 13.6598 13.448 14.7061 11.8676 14.7061H11.8387C10.317 14.7061 9.3333 13.6598 9.3333 12.3522C9.3333 11.017 10.347 10 11.8975 10C13.448 10 14.4029 11.017 14.4323 12.3522ZM14.1337 16.5649V30.183H9.60128V16.5649H14.1337ZM30.4793 30.183L30.4795 22.3748C30.4795 18.1919 28.2435 16.2451 25.2609 16.2451C22.8545 16.2451 21.7771 17.5669 21.1755 18.4941V16.5652H16.6426C16.7023 17.8431 16.6426 30.1833 16.6426 30.1833H21.1755V22.5779C21.1755 22.1709 21.205 21.7649 21.3248 21.4735C21.6524 20.6604 22.3982 19.8185 23.6504 19.8185C25.2912 19.8185 25.947 21.0673 25.947 22.8973V30.183H30.4793Z" fill="white"/>
</svg>
