<svg width="40" height="40" viewBox="0 0 40 40" fill="none" xmlns="http://www.w3.org/2000/svg">
<path d="M36.5625 30.4688L34.8392 28.7454L31.6875 31.8971V21.9375H29.25V31.8971L26.0983 28.7454L24.375 30.4688L30.4688 36.5625L36.5625 30.4688Z" fill="black"/>
<path d="M21.9375 34.1249H9.75V4.87493H19.5V12.1874C19.5019 12.8333 19.7594 13.4522 20.2161 13.9089C20.6728 14.3656 21.2916 14.623 21.9375 14.6249H29.25V18.2812H31.6875V12.1874C31.6918 12.0273 31.6613 11.868 31.5982 11.7208C31.5351 11.5735 31.4408 11.4416 31.3219 11.3343L22.7906 2.80305C22.6833 2.68403 22.5515 2.58971 22.4042 2.52659C22.2569 2.46346 22.0977 2.43304 21.9375 2.43743H9.75C9.10413 2.43936 8.48526 2.69678 8.02856 3.15348C7.57186 3.61019 7.31443 4.22905 7.3125 4.87493V34.1249C7.31443 34.7708 7.57186 35.3897 8.02856 35.8464C8.48526 36.3031 9.10413 36.5605 9.75 36.5624H21.9375V34.1249ZM21.9375 5.36243L28.7625 12.1874H21.9375V5.36243Z" fill="black"/>
</svg>
