<svg width="35" height="35" viewBox="0 0 35 35" fill="none" xmlns="http://www.w3.org/2000/svg">
<path d="M32.8125 27.3438L31.2659 25.7972L28.4375 28.6256V19.6875H26.25V28.6256L23.4216 25.7972L21.875 27.3438L27.3438 32.8125L32.8125 27.3438Z" fill="white"/>
<path d="M19.6875 30.6251H8.75V4.37513H17.5V10.9376C17.5017 11.5173 17.7328 12.0727 18.1426 12.4825C18.5525 12.8924 19.1079 13.1234 19.6875 13.1251H26.25V16.4064H28.4375V10.9376C28.4414 10.7939 28.414 10.651 28.3574 10.5188C28.3007 10.3867 28.2161 10.2683 28.1094 10.172L20.4531 2.51575C20.3568 2.40894 20.2385 2.32429 20.1063 2.26764C19.9742 2.21099 19.8313 2.18369 19.6875 2.18763H8.75C8.17037 2.18936 7.61498 2.42038 7.20512 2.83024C6.79526 3.24011 6.56423 3.7955 6.5625 4.37513V30.6251C6.56423 31.2048 6.79526 31.7602 7.20512 32.17C7.61498 32.5799 8.17037 32.8109 8.75 32.8126H19.6875V30.6251ZM19.6875 4.81263L25.8125 10.9376H19.6875V4.81263Z" fill="white"/>
</svg>
